<svg width="24" height="24" viewBox="0 0 24 24" fill="none" xmlns="http://www.w3.org/2000/svg">
<path d="M18.7043 3.67308H15.0288V3.00481C15.0288 1.89757 14.1313 1 13.024 1H10.351C9.24372 1 8.34615 1.89757 8.34615 3.00481V3.67308H4.67067C3.748 3.67308 3 4.42108 3 5.34375V6.68029C3 7.04938 3.29918 7.34856 3.66827 7.34856H19.7067C20.0758 7.34856 20.375 7.04938 20.375 6.68029V5.34375C20.375 4.42108 19.627 3.67308 18.7043 3.67308ZM9.68269 3.00481C9.68269 2.63642 9.98258 2.33654 10.351 2.33654H13.024C13.3924 2.33654 13.6923 2.63642 13.6923 3.00481V3.67308H9.68269V3.00481Z" fill="#FF0303"/>
<path d="M4.26815 8.68509C4.14891 8.68509 4.05389 8.78475 4.05957 8.90386L4.61089 20.475C4.66185 21.5459 5.54145 22.3846 6.61319 22.3846H16.7617C17.8334 22.3846 18.713 21.5459 18.764 20.475L19.3153 8.90386C19.321 8.78475 19.226 8.68509 19.1067 8.68509H4.26815ZM14.3605 10.3558C14.3605 9.98654 14.6596 9.68749 15.0288 9.68749C15.398 9.68749 15.6971 9.98654 15.6971 10.3558V19.0433C15.6971 19.4125 15.398 19.7115 15.0288 19.7115C14.6596 19.7115 14.3605 19.4125 14.3605 19.0433V10.3558ZM11.0192 10.3558C11.0192 9.98654 11.3182 9.68749 11.6874 9.68749C12.0567 9.68749 12.3557 9.98654 12.3557 10.3558V19.0433C12.3557 19.4125 12.0567 19.7115 11.6874 19.7115C11.3182 19.7115 11.0192 19.4125 11.0192 19.0433V10.3558ZM7.67783 10.3558C7.67783 9.98654 7.97688 9.68749 8.3461 9.68749C8.71531 9.68749 9.01436 9.98654 9.01436 10.3558V19.0433C9.01436 19.4125 8.71531 19.7115 8.3461 19.7115C7.97688 19.7115 7.67783 19.4125 7.67783 19.0433V10.3558Z" fill="#FF0303"/>
</svg>
