<svg width="24" height="24" viewBox="0 0 24 24" fill="none" xmlns="http://www.w3.org/2000/svg">
<path fillRule="evenodd" clipRule="evenodd" d="M17.2552 8.42553C17.2552 9.76512 16.1692 10.8511 14.8297 10.8511C13.4901 10.8511 12.4041 9.76512 12.4041 8.42553C12.4041 7.08595 13.4901 6 14.8297 6C16.1692 6 17.2552 7.08595 17.2552 8.42553ZM16.7587 12.4096C18.2364 11.6928 19.2552 10.1782 19.2552 8.42553C19.2552 5.98138 17.2738 4 14.8297 4C12.3855 4 10.4041 5.98138 10.4041 8.42553C10.4041 10.1782 11.423 11.6929 12.9007 12.4097C10.15 13.1066 7.97969 15.2594 7.25775 18C7.08958 18.6384 7 19.3088 7 20H9H20.6596H22.6596C22.6596 19.3088 22.57 18.6384 22.4018 18C21.6799 15.2594 19.5094 13.1065 16.7587 12.4096ZM9.35211 18C10.1682 15.7654 12.3127 14.1702 14.8298 14.1702C17.3469 14.1702 19.4914 15.7654 20.3075 18H9.35211Z" fill="white"/>
<rect x="4.97949" y="7.55316" width="1.48937" height="7.44684" rx="0.744684" fill="white"/>
<rect x="2" y="12.0213" width="1.48937" height="7.44684" rx="0.744684" transform="rotate(-90 2 12.0213)" fill="white"/>
</svg>
