<svg width="24" height="24" viewBox="0 0 24 24" fill="none" xmlns="http://www.w3.org/2000/svg">
<mask id="path-1-inside-1" fill="white">
<path fill-rule="evenodd" clip-rule="evenodd" d="M11.9128 1C10.8837 1 10.0495 1.83424 10.0495 2.86333C10.0495 2.9645 10.0575 3.06378 10.0731 3.16058C7.87064 3.91076 6.2864 5.99703 6.2864 8.45331C6.2864 8.86255 6.33038 9.26152 6.41386 9.64575C6.54569 10.2525 6.52508 10.8995 6.21465 11.4372L1.27093 20C0.501133 21.3333 1.46338 23 3.00298 23H20.8181C22.3577 23 23.3199 21.3333 22.5501 20L17.5579 11.3532C17.2522 10.8238 17.2274 10.1875 17.351 9.58875C17.4266 9.22211 17.4664 8.84235 17.4664 8.45331C17.4664 6.02269 15.9151 3.95441 13.7486 3.18453C13.7667 3.08019 13.7761 2.97286 13.7761 2.86333C13.7761 1.83424 12.9419 1 11.9128 1Z"/>
</mask>
<path d="M10.0731 3.16058L10.7179 5.05376L12.3149 4.5098L12.0478 2.84399L10.0731 3.16058ZM6.41386 9.64575L8.36826 9.2211L8.36826 9.22109L6.41386 9.64575ZM6.21465 11.4372L7.9467 12.4372L7.9467 12.4372L6.21465 11.4372ZM1.27093 20L-0.461118 19L-0.461118 19L1.27093 20ZM22.5501 20L24.2822 19L24.2822 19L22.5501 20ZM17.5579 11.3532L19.29 10.3532L19.29 10.3532L17.5579 11.3532ZM17.351 9.58875L19.3097 9.99289L19.3097 9.99289L17.351 9.58875ZM13.7486 3.18453L11.7781 2.84215L11.4893 4.50422L13.0789 5.06908L13.7486 3.18453ZM12.0495 2.86333C12.0495 2.93881 11.9883 3 11.9128 3V-1C9.77916 -1 8.04948 0.729672 8.04948 2.86333H12.0495ZM12.0478 2.84399C12.0491 2.8515 12.0495 2.85807 12.0495 2.86333H8.04948C8.04948 3.07092 8.06604 3.27607 8.09828 3.47716L12.0478 2.84399ZM9.4282 1.26739C6.44021 2.28516 4.2864 5.11511 4.2864 8.45331H8.2864C8.2864 6.87894 9.30106 5.53637 10.7179 5.05376L9.4282 1.26739ZM4.2864 8.45331C4.2864 9.00622 4.34586 9.54754 4.45946 10.0704L8.36826 9.22109C8.3149 8.9755 8.2864 8.71887 8.2864 8.45331H4.2864ZM4.45946 10.0704C4.49065 10.2139 4.49421 10.321 4.48818 10.3878C4.48256 10.4502 4.47094 10.4574 4.48259 10.4372L7.9467 12.4372C8.59075 11.3217 8.563 10.1174 8.36826 9.2211L4.45946 10.0704ZM4.48259 10.4372L-0.461118 19L3.00298 21L7.9467 12.4372L4.48259 10.4372ZM-0.461118 19C-2.00072 21.6666 -0.0762204 25 3.00298 25V21L3.00298 21L-0.461118 19ZM3.00298 25H20.8181V21H3.00298V25ZM20.8181 25C23.8972 25 25.8218 21.6666 24.2822 19L20.8181 21L20.8181 21V25ZM24.2822 19L19.29 10.3532L15.8259 12.3532L20.8181 21L24.2822 19ZM19.29 10.3532C19.3015 10.3732 19.2901 10.3661 19.2842 10.3049C19.2779 10.2394 19.2805 10.1344 19.3097 9.99289L15.3923 9.18461C15.2095 10.0701 15.1917 11.2549 15.8259 12.3532L19.29 10.3532ZM19.3097 9.99289C19.4127 9.49406 19.4664 8.9789 19.4664 8.45331H15.4664C15.4664 8.7058 15.4406 8.95016 15.3922 9.18461L19.3097 9.99289ZM19.4664 8.45331C19.4664 5.14994 17.3572 2.34433 14.4182 1.29998L13.0789 5.06908C14.473 5.56448 15.4664 6.89545 15.4664 8.45331H19.4664ZM11.7761 2.86333C11.7761 2.8576 11.7767 2.85038 11.7781 2.84215L15.719 3.52691C15.7567 3.30999 15.7761 3.08812 15.7761 2.86333H11.7761ZM11.9128 3C11.8373 3 11.7761 2.93881 11.7761 2.86333H15.7761C15.7761 0.729672 14.0465 -1 11.9128 -1V3Z" fill="#232323" mask="url(#path-1-inside-1)"/>
</svg>
