<svg width="24" height="24" viewBox="0 0 24 24" fill="none" xmlns="http://www.w3.org/2000/svg">
<path d="M12.2701 1C6.0428 1 1 6.04 1 12.25C1 18.46 6.0428 23.5 12.2701 23.5C18.5088 23.5 23.5628 18.46 23.5628 12.25C23.5628 6.04 18.5088 1 12.2701 1ZM8.33293 7.75C9.26928 7.75 10.0251 8.50375 10.0251 9.4375C10.0251 10.3712 9.26928 11.125 8.33293 11.125C7.39657 11.125 6.64071 10.3712 6.64071 9.4375C6.64071 8.50375 7.39657 7.75 8.33293 7.75ZM12.2814 19C11.5738 19 10.8953 18.8587 10.265 18.599C7.7002 17.5422 9.50744 14.5 12.2814 14.5V14.5C15.0554 14.5 16.8626 17.5422 14.2979 18.599C13.6676 18.8587 12.989 19 12.2814 19ZM16.2299 11.125C15.2936 11.125 14.5377 10.3712 14.5377 9.4375C14.5377 8.50375 15.2936 7.75 16.2299 7.75C17.1663 7.75 17.9221 8.50375 17.9221 9.4375C17.9221 10.3712 17.1663 11.125 16.2299 11.125Z" fill="#7E98DF"/>
</svg>
