<svg width="24" height="24" viewBox="0 0 24 24" fill="none" xmlns="http://www.w3.org/2000/svg">
<path fillRule="evenodd" clipRule="evenodd" d="M2.375 1C1.61561 1 1 1.61561 1 2.375V21.625C1 21.7199 1.00962 21.8126 1.02794 21.9021C1.15615 22.5287 1.71053 23 2.375 23H21.625C22.3844 23 23 22.3844 23 21.625C23 20.8656 22.3844 20.25 21.625 20.25H3.75V2.375C3.75 1.61561 3.13439 1 2.375 1Z" fill="#232323"/>
<path d="M3 21.5625C3.6875 18.3542 6.575 11.9375 12.625 11.9375C18.675 11.9375 21.1042 5.97917 21.5625 3" stroke="#232323" strokeWidth="2"/>
<path d="M12.3565 12.3565C6.08241 12.3565 3.08796 18.5355 2.375 21.625H21.625V3.75C21.625 6.39815 18.6306 12.3565 12.3565 12.3565Z" fill="url(#paint0_linear)"/>
<defs>
<linearGradient id="paint0_linear" x1="12" y1="3.75" x2="12" y2="21.625" gradientUnits="userSpaceOnUse">
<stop stop-color="white"/>
<stop offset="1" stop-color="white" stop-opacity="0"/>
</linearGradient>
</defs>
</svg>
