<svg width="24" height="24" viewBox="0 0 24 24" fill="none" xmlns="http://www.w3.org/2000/svg">
<mask id="path-1-inside-1" fill="white">
<path d="M1 6C1 3.79086 2.79086 2 5 2H19C21.2091 2 23 3.79086 23 6V18C23 20.2091 21.2091 22 19 22H2C1.44772 22 1 21.5523 1 21V6Z"/>
</mask>
<path d="M1 6C1 3.79086 2.79086 2 5 2H19C21.2091 2 23 3.79086 23 6V18C23 20.2091 21.2091 22 19 22H2C1.44772 22 1 21.5523 1 21V6Z" stroke="#232323" strokeWidth="4" mask="url(#path-1-inside-1)"/>
<rect x="6" y="11" width="12" height="2" rx="1" fill="#232323"/>
<rect x="6" y="7" width="12" height="2" rx="1" fill="#232323"/>
<rect x="6" y="15" width="12" height="2" rx="1" fill="#232323"/>
</svg>
