<svg width="24" height="24" viewBox="0 0 24 24" fill="none" xmlns="http://www.w3.org/2000/svg">
<path d="M10.8478 23.9793H21.6113C22.484 23.9793 23.1939 23.2693 23.1939 22.3966V1.60333C23.1939 0.73063 22.484 0.0206909 21.6113 0.0206909H10.8143C10.3241 0.0206909 9.92676 0.418071 9.92676 0.908271C9.92676 1.39847 10.3241 1.79585 10.8143 1.79585H21.4188V22.2041H10.8478C10.3576 22.2041 9.9602 22.6015 9.9602 23.0917C9.9602 23.5819 10.3576 23.9793 10.8478 23.9793Z" fill="white"/>
<path d="M21.6115 24H10.848C10.3471 24 9.93969 23.5926 9.93969 23.0917C9.93969 22.5909 10.3471 22.1834 10.848 22.1834H21.3983V1.8166H10.8145C10.3137 1.8166 9.90625 1.40915 9.90625 0.908298C9.90625 0.40745 10.3137 0 10.8145 0H21.6115C22.4956 0 23.2149 0.719263 23.2149 1.60336V22.3966C23.2149 23.2807 22.4956 24 21.6115 24ZM10.848 22.2249C10.37 22.2249 9.98113 22.6138 9.98113 23.0917C9.98113 23.5697 10.37 23.9586 10.848 23.9586H21.6115C22.4728 23.9586 23.1734 23.2579 23.1734 22.3967V1.60336C23.1735 0.742136 22.4728 0.041437 21.6115 0.041437H10.8145C10.3366 0.041437 9.94769 0.430323 9.94769 0.908298C9.94769 1.38627 10.3366 1.77516 10.8145 1.77516H21.4397V22.2249H10.848Z" fill="white"/>
<path d="M11.4195 5.33384C11.2947 5.05215 11.1171 4.80208 10.8918 4.59067C10.4608 4.18629 9.89828 3.96356 9.30793 3.96356C9.30793 3.96356 9.30784 3.96356 9.3078 3.96356C8.73448 3.96356 8.18391 4.17783 7.75752 4.5668L1.55644 10.2232C1.07867 10.6591 0.804646 11.2799 0.804688 11.9265C0.804688 12.5732 1.07871 13.194 1.55644 13.6298L7.75752 19.2862C8.18395 19.6753 8.73456 19.8895 9.30788 19.8895C9.89824 19.8895 10.4607 19.6668 10.8917 19.2624C11.1171 19.051 11.2946 18.801 11.4194 18.5192C11.5502 18.224 11.6166 17.909 11.6166 17.5829V16.7647H17.3989C18.6701 16.7647 19.7043 15.7305 19.7043 14.4593V9.39375C19.7043 8.12255 18.6701 7.08828 17.3989 7.08828H11.6166V6.27003C11.6166 5.94404 11.5503 5.62904 11.4195 5.33384ZM17.3989 8.86348C17.6917 8.86348 17.9291 9.10088 17.9291 9.39375V14.4593C17.9291 14.7521 17.6917 14.9896 17.3989 14.9896H10.3717C10.0789 14.9896 9.84147 15.227 9.84147 15.5199V17.583C9.84147 17.9008 9.58112 18.1143 9.30788 18.1143C9.18498 18.1143 9.05947 18.0711 8.95381 17.9748L2.75272 12.3183C2.52217 12.108 2.52217 11.7451 2.75272 11.5347L8.95376 5.87828C9.05939 5.78194 9.18494 5.73876 9.30784 5.73872C9.58108 5.73872 9.84143 5.95225 9.84143 6.27007V8.33317C9.84143 8.62601 10.0788 8.86348 10.3717 8.86348H17.3989Z" fill="white"/>
<path d="M9.30809 19.9102C8.72955 19.9102 8.17401 19.6941 7.74377 19.3016L1.54268 13.6451C1.06065 13.2054 0.78418 12.579 0.78418 11.9266C0.78418 11.2741 1.06061 10.6477 1.54268 10.2079L7.74377 4.5515C8.17401 4.15901 8.72955 3.94287 9.30801 3.94287C9.90375 3.94287 10.4713 4.16758 10.9062 4.57557C11.1336 4.78893 11.3127 5.04124 11.4386 5.32546C11.5706 5.62331 11.6376 5.94109 11.6376 6.27005V7.06759H17.3991C18.6817 7.06759 19.7252 8.1111 19.7252 9.39378V14.4593C19.7252 15.742 18.6817 16.7855 17.3991 16.7855H11.6376V17.583C11.6376 17.9119 11.5706 18.2298 11.4386 18.5277C11.3126 18.8119 11.1335 19.0643 10.9061 19.2776C10.4713 19.6856 9.90375 19.9102 9.30809 19.9102ZM9.30814 3.98431C8.73991 3.98431 8.19431 4.19663 7.77169 4.58212L1.57061 10.2386C1.09715 10.6705 0.825617 11.2858 0.825617 11.9266C0.825617 12.5674 1.09715 13.1826 1.57061 13.6145L7.77169 19.271C8.19427 19.6565 8.73991 19.8688 9.30809 19.8688C9.89318 19.8688 10.4506 19.6481 10.8777 19.2474C11.1011 19.0378 11.277 18.7901 11.4007 18.5109C11.5304 18.2183 11.5961 17.9061 11.5961 17.583V16.7441H17.3991C18.6588 16.7441 19.6838 15.7192 19.6838 14.4593V9.39378C19.6838 8.13397 18.6589 7.10903 17.3991 7.10903H11.5961V6.27005C11.5961 5.94693 11.5304 5.63474 11.4007 5.34224C11.2771 5.06312 11.1012 4.81533 10.8778 4.60578C10.4506 4.20504 9.89318 3.98431 9.30814 3.98431ZM9.30809 18.1351C9.17127 18.1351 9.04402 18.0849 8.94005 17.9901L2.73897 12.3336C2.62477 12.2295 2.5593 12.0811 2.5593 11.9266C2.5593 11.772 2.62481 11.6236 2.73897 11.5194L8.94001 5.86298C9.04393 5.76817 9.17123 5.71803 9.30805 5.71799C9.57462 5.71799 9.86236 5.92907 9.86236 6.27005V8.33316C9.86236 8.61414 10.091 8.84275 10.3719 8.84275H17.3991C17.5463 8.84275 17.6846 8.90006 17.7887 9.00411C17.8927 9.1082 17.9501 9.24655 17.9501 9.39374V14.4593C17.9501 14.7631 17.7029 15.0103 17.3991 15.0103H10.3719C10.091 15.0103 9.8624 15.2389 9.8624 15.5199V17.583C9.8624 17.924 9.57466 18.1351 9.30809 18.1351ZM9.30809 5.75951C9.18179 5.75955 9.06416 5.80596 8.96798 5.89364L2.7669 11.5501C2.66127 11.6464 2.60073 11.7837 2.60073 11.9266C2.60073 12.0695 2.66132 12.2067 2.7669 12.303L8.96794 17.9595C9.06416 18.0472 9.18175 18.0936 9.30805 18.0936C9.62911 18.0936 9.82092 17.8339 9.82092 17.583V15.5199C9.82092 15.216 10.0681 14.9689 10.3719 14.9689H17.399C17.68 14.9689 17.9086 14.7403 17.9086 14.4593V9.39378C17.9086 9.1128 17.68 8.88423 17.399 8.88423H10.3719C10.068 8.88423 9.82088 8.63706 9.82088 8.3332V6.2701C9.82096 6.01911 9.62911 5.75951 9.30809 5.75951Z" fill="white"/>
</svg>
