<svg width="24" height="24" viewBox="0 0 24 24" fill="none" xmlns="http://www.w3.org/2000/svg">
<path fillRule="evenodd" clipRule="evenodd" d="M15.8511 7.08511C15.8511 9.34125 14.0221 11.1702 11.766 11.1702C9.50982 11.1702 7.68085 9.34125 7.68085 7.08511C7.68085 4.82896 9.50982 3 11.766 3C14.0221 3 15.8511 4.82896 15.8511 7.08511ZM14.4184 12.5632C16.4502 11.5776 17.8511 9.49497 17.8511 7.08511C17.8511 3.7244 15.1267 1 11.766 1C8.40525 1 5.68085 3.7244 5.68085 7.08511C5.68085 9.49497 7.08171 11.5776 9.11352 12.5632C5.08379 13.5842 1.95984 16.8777 1.18542 21C1.06368 21.6481 1 22.3166 1 23H3H20.5319H22.5319C22.5319 22.3166 22.4682 21.6481 22.3465 21C21.5721 16.8777 18.4481 13.5842 14.4184 12.5632ZM3.22919 21C4.13408 17.1224 7.61271 14.234 11.766 14.234C15.9192 14.234 19.3978 17.1224 20.3027 21H3.22919Z" fill="white"/>
</svg>
