<svg width="24" height="24" viewBox="0 0 24 24" fill="none" xmlns="http://www.w3.org/2000/svg">
<circle cx="12" cy="12" r="10" stroke="white" strokeWidth="2"/>
<path d="M13.08 15H11.24C11.24 14.5734 11.336 14.1734 11.528 13.8C11.72 13.416 11.9547 13.0907 12.232 12.824C12.5094 12.5467 12.7867 12.2854 13.064 12.04C13.3414 11.784 13.576 11.5067 13.768 11.208C13.96 10.9094 14.056 10.6054 14.056 10.296C14.056 9.85869 13.9014 9.51735 13.592 9.27202C13.2827 9.02669 12.8667 8.90402 12.344 8.90402C11.8427 8.90402 11.4107 9.03202 11.048 9.28802C10.6854 9.54402 10.424 9.90669 10.264 10.376L8.68004 9.48002C8.96804 8.73335 9.44271 8.15202 10.104 7.73602C10.776 7.32002 11.5387 7.11202 12.392 7.11202C13.352 7.11202 14.1734 7.38402 14.856 7.92802C15.5494 8.47202 15.896 9.22402 15.896 10.184C15.896 10.6214 15.8 11.0374 15.608 11.432C15.416 11.8267 15.1814 12.1627 14.904 12.44C14.6267 12.7174 14.3494 12.9894 14.072 13.256C13.7947 13.512 13.56 13.7894 13.368 14.088C13.176 14.3867 13.08 14.6907 13.08 15ZM12.168 16.312C12.4987 16.312 12.7814 16.4294 13.016 16.664C13.2507 16.8987 13.368 17.1814 13.368 17.512C13.368 17.8427 13.2507 18.1254 13.016 18.36C12.7814 18.5947 12.4987 18.712 12.168 18.712C11.8374 18.712 11.5547 18.5947 11.32 18.36C11.0854 18.1254 10.968 17.8427 10.968 17.512C10.968 17.1814 11.08 16.8987 11.304 16.664C11.5387 16.4294 11.8267 16.312 12.168 16.312Z" fill="white"/>
</svg>
