<svg width="24" height="24" viewBox="0 0 24 24" fill="none" xmlns="http://www.w3.org/2000/svg">
<path fill-rule="evenodd" clip-rule="evenodd" d="M19.9891 8.99223H20.4219C21.8435 8.99223 23 10.1488 23 11.5704V12.4297C23 13.8513 21.8435 15.0079 20.4219 15.0079H19.9891C19.8752 15.0079 19.772 15.0796 19.7262 15.1906L19.7197 15.2063C19.6734 15.3177 19.6955 15.4418 19.7761 15.5223L20.0821 15.8283C20.569 16.3153 20.8372 16.9627 20.8372 17.6513C20.8372 18.34 20.569 18.9874 20.0821 19.4743L19.4744 20.082C18.9874 20.569 18.34 20.8371 17.6514 20.8371C16.9627 20.8371 16.3153 20.569 15.8283 20.082L15.5223 19.776C15.4418 19.6955 15.3177 19.6734 15.2063 19.7196L15.1895 19.7266C15.0795 19.772 15.0078 19.8752 15.0078 19.989V20.4219C15.0078 21.8435 13.8513 23 12.4297 23H11.5703C10.1487 23 8.99219 21.8435 8.99219 20.4219V19.989C8.99219 19.8752 8.92052 19.772 8.80953 19.7262L8.79333 19.7195C8.68234 19.6734 8.55812 19.6954 8.47764 19.776L8.17166 20.082C7.68473 20.569 7.03732 20.8371 6.34862 20.8371C5.66 20.8371 5.01255 20.569 4.52559 20.082L3.91792 19.4743C3.431 18.9874 3.16283 18.34 3.16283 17.6513C3.16283 16.9627 3.431 16.3153 3.91796 15.8283L4.22395 15.5223C4.30447 15.4418 4.3266 15.3177 4.28032 15.2062L4.27267 15.1877C4.22794 15.0795 4.12477 15.0078 4.01091 15.0078H3.57812C2.15655 15.0078 1 13.8512 1 12.4296V11.5703C1 10.1487 2.15655 8.99214 3.57812 8.99214H4.01095C4.12477 8.99214 4.22803 8.92043 4.27383 8.80944L4.27903 8.79689C4.3266 8.68225 4.30451 8.5582 4.22399 8.47764L3.91801 8.17166C2.91275 7.1664 2.91275 5.53084 3.91796 4.52559L4.52563 3.91801C5.01259 3.43104 5.66 3.16287 6.34866 3.16287C7.03732 3.16287 7.68478 3.43104 8.1717 3.91801L8.47772 4.22403C8.5582 4.30455 8.68238 4.32668 8.79371 4.28036L8.81052 4.2734C8.92056 4.22798 8.99223 4.12482 8.99223 4.01099V3.57812C8.99223 2.15655 10.1488 1 11.5704 1H12.4297C13.8513 1 15.0079 2.15655 15.0079 3.57812V4.01099C15.0079 4.12482 15.0795 4.22798 15.1905 4.27383L15.2067 4.28054C15.3177 4.32664 15.4418 4.30455 15.5224 4.22399L15.8284 3.91801C16.3153 3.43104 16.9627 3.16287 17.6514 3.16287C18.34 3.16287 18.9875 3.43104 19.4745 3.91801L20.0821 4.52567C21.0873 5.53088 21.0873 7.16649 20.0821 8.1717L19.7761 8.47772C19.6956 8.55825 19.6734 8.6823 19.7197 8.79376L19.7274 8.81232C19.7721 8.92052 19.8753 8.99223 19.9891 8.99223ZM20.4219 13.2891C20.8957 13.2891 21.2812 12.9035 21.2812 12.4297V11.5703C21.2812 11.0965 20.8957 10.7109 20.4219 10.7109H19.9891C19.1768 10.7109 18.45 10.2221 18.1376 9.46557L18.1311 9.44989C17.8182 8.69661 17.9863 7.83676 18.5606 7.26235L18.8667 6.95629C19.2018 6.62121 19.2018 6.07603 18.8667 5.74096L18.259 5.13329C18.0967 4.971 17.8809 4.88158 17.6513 4.88158C17.4218 4.88158 17.206 4.97096 17.0437 5.13325L16.7376 5.43932C16.1632 6.01364 15.3033 6.18169 14.547 5.86759L14.5354 5.86277C13.7779 5.55005 13.2891 4.82332 13.2891 4.01099V3.57812C13.2891 3.10427 12.9035 2.71875 12.4297 2.71875H11.5703C11.0965 2.71875 10.7109 3.10427 10.7109 3.57812V4.01099C10.7109 4.82332 10.2221 5.55005 9.46553 5.86243L9.45341 5.86746C8.69678 6.18182 7.83684 6.01372 7.26239 5.4394L6.95633 5.13334C6.79403 4.971 6.57825 4.88162 6.34866 4.88162C6.11912 4.88162 5.90334 4.97104 5.74096 5.13334L5.13334 5.741C4.79822 6.07607 4.79822 6.62126 5.13334 6.95637L5.43932 7.26235C6.01368 7.83676 6.18177 8.69665 5.86759 9.45307L5.86359 9.46282C5.55 10.2221 4.82327 10.7109 4.01095 10.7109H3.57812C3.10427 10.7109 2.71875 11.0965 2.71875 11.5703V12.4297C2.71875 12.9035 3.10427 13.2891 3.57812 13.2891H4.01095C4.82323 13.2891 5.54996 13.7779 5.86243 14.5344L5.86802 14.5479C6.18164 15.3041 6.01346 16.1635 5.43936 16.7376L5.13334 17.0437C4.971 17.206 4.88162 17.4218 4.88162 17.6513C4.88162 17.8809 4.971 18.0967 5.13334 18.259L5.741 18.8667C5.90329 19.029 6.11912 19.1184 6.34866 19.1184C6.57825 19.1184 6.79399 19.029 6.95633 18.8667L7.26235 18.5606C7.64456 18.1785 8.15331 17.9761 8.6737 17.9761C8.93538 17.9761 9.19994 18.0272 9.45303 18.1324L9.46463 18.1372C10.2221 18.45 10.7109 19.1767 10.7109 19.989V20.4219C10.7109 20.8957 11.0965 21.2812 11.5703 21.2812H12.4297C12.9035 21.2812 13.2891 20.8957 13.2891 20.4219V19.989C13.2891 19.1767 13.7779 18.45 14.5345 18.1376L14.5466 18.1325C15.3033 17.8183 16.1632 17.9863 16.7376 18.5606L17.0437 18.8667C17.206 19.029 17.4218 19.1184 17.6513 19.1184C17.8809 19.1184 18.0967 19.029 18.259 18.8667L18.8667 18.259C19.029 18.0967 19.1184 17.8809 19.1184 17.6513C19.1184 17.4218 19.029 17.206 18.8667 17.0437L18.5606 16.7376C17.9866 16.1635 17.8184 15.3041 18.132 14.5479L18.1376 14.5344C18.45 13.7779 19.1767 13.2891 19.9891 13.2891H20.4219ZM14.9867 12.0001C14.9867 13.6495 13.6495 14.9867 12 14.9867C10.3505 14.9867 9.01333 13.6495 9.01333 12.0001C9.01333 10.3506 10.3505 9.01339 12 9.01339C13.6495 9.01339 14.9867 10.3506 14.9867 12.0001ZM16.9867 12.0001C16.9867 14.7541 14.7541 16.9867 12 16.9867C9.24594 16.9867 7.01333 14.7541 7.01333 12.0001C7.01333 9.24599 9.24594 7.01339 12 7.01339C14.7541 7.01339 16.9867 9.24599 16.9867 12.0001Z" fill="white"/>
</svg>
