<svg width="24" height="24" viewBox="0 0 24 24" fill="none" xmlns="http://www.w3.org/2000/svg">
<g clip-path="url(#clip0)">
<path d="M1.4779 19.8699L4.95871 19.8699C5.91834 19.8699 6.69912 19.0891 6.69912 18.1295L6.69912 16.5473C6.69912 15.8203 7.29073 15.2289 8.01736 15.2288L14.8781 15.2317C15.6068 15.2317 16.1966 15.8214 16.1966 16.5502C16.1966 16.8051 16.1966 17.5368 16.1966 18.1324C16.1966 19.0878 16.9682 19.8728 17.9379 19.8728L21.4123 19.8673C22.372 19.8673 23.1527 19.0865 23.1527 18.1294C23.1558 17.4164 23.1568 17.1863 23.1582 16.8666C23.1582 13.406 20.3428 10.5906 16.8824 10.5906L6.01353 10.5878C2.54477 10.5877 -0.262477 13.3947 -0.26245 16.8637L-0.262477 18.1295C-0.262477 19.0892 0.518243 19.8699 1.4779 19.8699ZM21.9925 18.1269C21.9925 18.4468 21.7323 18.707 21.4114 18.7071L17.937 18.7125C17.6164 18.7125 17.3569 18.4531 17.3569 18.1324L17.3569 17.5523L21.995 17.5523L21.9925 18.1269ZM6.01334 11.748L16.8823 11.7509C19.5596 11.7509 21.7353 13.7794 21.9759 16.392L17.3513 16.392C17.2701 15.0956 16.1953 14.0714 14.8783 14.0714L8.01786 14.0685C8.0178 14.0685 8.01769 14.0685 8.01764 14.0685C6.7021 14.0685 5.62565 15.091 5.54444 16.3891L0.919732 16.3891C1.15787 13.7831 3.31751 11.748 6.01334 11.748ZM0.897748 18.1295L0.897748 17.5494L5.53884 17.5494L5.53887 18.1295C5.53884 18.4494 5.27863 18.7096 4.95871 18.7096L1.4779 18.7096C1.15798 18.7096 0.897721 18.4494 0.897748 18.1295Z" fill="white"/>
</g>
<defs>
<clipPath id="clip0">
<rect width="24" height="24" fill="white"/>
</clipPath>
</defs>
</svg>
